<svg width="70" height="39" viewBox="0 0 70 39" fill="none" xmlns="http://www.w3.org/2000/svg">
<rect x="7" width="63" height="29" fill="white"/>
<path d="M27.0103 34.6667V35H23.6257V34.6667L25.1641 34.0256L29.7539 22.0256H29.9847L34.318 34.4359L35.7795 34.6667V35H31.1385V34.6667L32.4206 34.4615L31.0616 30.7179H26.8821L25.6 34.0256L27.0103 34.6667ZM29.0616 24.8205L27.0103 30.3846H30.959L29.0616 24.8205ZM51.7416 33.8974L51.998 34.1795C51.4339 34.8291 50.81 35.1538 50.1262 35.1538C49.4424 35.1538 48.9467 35.0171 48.639 34.7436C48.3484 34.453 48.1604 33.9658 48.0749 33.2821L47.7672 31.1538C47.545 29.6325 46.6989 28.8718 45.2288 28.8718H43.998V34.4359L45.4595 34.6667V35H40.8185V34.6667L42.2544 34.4359V22.9231L40.8185 22.6923V22.359H45.2288C46.9382 22.359 48.1775 22.6325 48.9467 23.1795C49.7159 23.7094 50.1006 24.5214 50.1006 25.6154C50.1006 27.4274 49.0065 28.4786 46.8185 28.7692V28.8718C48.4766 29.094 49.4424 29.9915 49.7159 31.5641L49.8954 32.9231C49.9809 33.453 50.0749 33.8462 50.1775 34.1026C50.2971 34.3419 50.4937 34.4615 50.7672 34.4615C51.0578 34.4615 51.3826 34.2735 51.7416 33.8974ZM45.2288 22.7692H43.998V28.4872H45.7672C46.5365 28.4872 47.1347 28.2564 47.5621 27.7949C47.9895 27.3162 48.2031 26.6154 48.2031 25.6923V25.3846C48.2031 23.641 47.2117 22.7692 45.2288 22.7692ZM66.1603 38.2821V38.641H65.6218C63.3996 38.641 62.2885 37.735 62.2885 35.9231V35.2308C60.7671 35.0256 59.5534 34.3248 58.6475 33.1282C57.7415 31.9145 57.2885 30.3846 57.2885 28.5385C57.2885 26.6752 57.844 25.1197 58.9551 23.8718C60.0834 22.6581 61.5107 22.0427 63.2372 22.0256C64.9637 22.0256 66.3825 22.6496 67.4936 23.8974C68.6218 25.1282 69.1859 26.6667 69.1859 28.5128C69.1859 30.359 68.7244 31.8889 67.8013 33.1026C66.8953 34.2991 65.7073 35.0085 64.2372 35.2308V36.3077C64.2372 37.6239 64.8782 38.2821 66.1603 38.2821ZM59.2628 29.8974C59.2628 31.4701 59.6304 32.7094 60.3654 33.6154C61.1004 34.5043 62.0492 34.9487 63.2116 34.9487C64.391 34.9487 65.3483 34.5043 66.0834 33.6154C66.8355 32.7094 67.2116 31.4701 67.2116 29.8974V27.4615C67.2116 25.8889 66.8355 24.6581 66.0834 23.7692C65.3483 22.8632 64.391 22.4103 63.2116 22.4103C62.0492 22.4103 61.1004 22.8632 60.3654 23.7692C59.6304 24.6581 59.2628 25.8889 59.2628 27.4615V29.8974Z" fill="black"/>
<path opacity="0.9" d="M8.02564 28.2268V27.8935H11.9744V28.2268L9.51282 29.2012C8.77778 30.0046 8.41026 30.9448 8.41026 32.0217C8.41026 33.0815 8.84615 33.9619 9.71795 34.6627C10.5897 35.3465 11.7607 35.6884 13.2308 35.6884H16.1282C17.6154 35.6884 18.7949 35.3636 19.6667 34.714C20.5214 34.0473 20.9487 33.1499 20.9487 32.0217C20.9487 31.4747 20.8376 30.9362 20.6154 30.4063C20.3761 29.8764 20.0513 29.4234 19.641 29.0473L17.1026 28.1499V27.8166H21.1538V28.1499L20.359 29.2781C21.0085 30.0815 21.3333 30.9533 21.3333 31.8935C21.3333 33.7055 20.7265 35.1328 19.5128 36.1755C18.2821 37.2183 16.6838 37.7396 14.7179 37.7396C12.735 37.7396 11.1282 37.2097 9.89744 36.1499C8.64957 35.073 8.02564 33.6713 8.02564 31.9448C8.02564 30.9875 8.33333 30.0986 8.94872 29.2781L8.02564 28.2268ZM17.5897 11.2282C18.7521 11.2282 19.6154 11.6556 20.1795 12.5103C20.7265 13.3479 21 14.4846 21 15.9205V21.4846H20.6667L20.4359 20.0487H8.92308L8.69231 21.4846H8.35897V16.6641C8.35897 14.9889 8.59829 13.8009 9.07692 13.1C9.53846 12.3821 10.2821 12.0231 11.3077 12.0231C12.8291 12.0231 13.7949 12.9889 14.2051 14.9205H14.3077C14.6325 12.459 15.7265 11.2282 17.5897 11.2282ZM14.5897 15.9205V18.3051H20.6154V15.9205C20.6154 15.0316 20.359 14.3393 19.8462 13.8436C19.3162 13.3308 18.5641 13.0744 17.5897 13.0744H17.4359C16.4786 13.0744 15.7692 13.3222 15.3077 13.8179C14.8291 14.3137 14.5897 15.0145 14.5897 15.9205ZM8.76923 16.6641V18.3051H14.1795V16.5615C14.1795 15.7239 13.9402 15.0829 13.4615 14.6385C12.9829 14.1769 12.3077 13.9462 11.4359 13.9462H11.3333C9.62393 13.9291 8.76923 14.835 8.76923 16.6641Z" fill="black"/>
</svg>
